<?xml version="1.0" encoding="UTF-8"?>
<svg width="56px" height="56px" viewBox="0 0 56 56" version="1.1" xmlns="http://www.w3.org/2000/svg" xmlns:xlink="http://www.w3.org/1999/xlink">
    <title>524D5F13-B6D7-4AA1-90D4-C85185B0D4FC</title>
    <defs>
        <path d="M26.3813282,25.7339653 C26.8441963,26.2629574 26.7905922,27.0670189 26.2616001,27.529887 C25.732608,27.992755 24.9285465,27.9391509 24.4656784,27.4101589 C16.932836,18.8011961 9.79443668,18.8011961 2.26159429,27.4101589 C1.79872622,27.9391509 0.994664704,27.992755 0.465672628,27.529887 C-0.0633194489,27.0670189 -0.11692355,26.2629574 0.345944517,25.7339653 C8.89292474,15.9659879 17.834348,15.9659879 26.3813282,25.7339653 Z M13.9379157,0.0310421286 C18.4468125,0.0310421286 22.1019956,3.68622517 22.1019956,8.19512195 C22.1019956,12.7040187 18.4468125,16.3592018 13.9379157,16.3592018 C9.42901896,16.3592018 5.77383592,12.7040187 5.77383592,8.19512195 C5.77383592,3.68622517 9.42901896,0.0310421286 13.9379157,0.0310421286 Z M13.9379157,2.57649667 C10.8348347,2.57649667 8.31929047,5.0920409 8.31929047,8.19512195 C8.31929047,11.298203 10.8348347,13.8137472 13.9379157,13.8137472 C17.0409968,13.8137472 19.556541,11.298203 19.556541,8.19512195 C19.556541,5.0920409 17.0409968,2.57649667 13.9379157,2.57649667 Z" id="path-1"></path>
    </defs>
    <g id="Templates" stroke="none" stroke-width="1" fill="none" fill-rule="evenodd" opacity="0.4">
        <g id="No-Clip---Global-Nav" transform="translate(-56.000000, -704.000000)">
            <g id="Group" transform="translate(55.000000, 320.000000)">
                <g id="Icon-Container/large-(56x56)" transform="translate(0.000000, 384.000000)">
                    <g id="Icon/Nav/Profile" transform="translate(0.600000, 0.000000)">
                        <g id="Profile" transform="translate(14.000000, 14.000000)">
                            <mask id="mask-2" fill="white">
                                <use xlink:href="#path-1"></use>
                            </mask>
                            <use id="Combined-Shape" fill="#FFFFFF" fill-rule="nonzero" xlink:href="#path-1"></use>
                            <g id="Color/Neutral-10-(FFFFFF)" mask="url(#mask-2)" fill="#FFFFFF">
                                <g transform="translate(-14.000000, -14.000000)" id="Rectangle">
                                    <rect x="0" y="0" width="56" height="56"></rect>
                                </g>
                            </g>
                        </g>
                    </g>
                </g>
            </g>
        </g>
    </g>
</svg>