<?xml version="1.0" encoding="UTF-8"?>
<svg width="56px" height="56px" viewBox="0 0 56 56" version="1.1" xmlns="http://www.w3.org/2000/svg" xmlns:xlink="http://www.w3.org/1999/xlink">
    <title>DDF6C6F6-1837-4D5D-A841-6E92FD545781</title>
    <defs>
        <path d="M21,15.0054545 L21,20.0963636 L15.2727273,20.0963636 L15.2727273,15.0054545 L21,15.0054545 Z M5.72727273,15.0047847 L5.72727273,20.0956938 L0,20.0956938 L0,15.0047847 L5.72727273,15.0047847 Z M13.3636364,15.0047847 L13.3636364,20.0956938 L7.63636364,20.0956938 L7.63636364,15.0047847 L13.3636364,15.0047847 Z M5.72727273,7.63636364 L5.72727273,12.7272727 L0,12.7272727 L0,7.63636364 L5.72727273,7.63636364 Z M21,7.63636364 L21,12.7272727 L15.2727273,12.7272727 L15.2727273,7.63636364 L21,7.63636364 Z M13.3636364,7.50239234 L13.3636364,12.5933014 L7.63636364,12.5933014 L7.63636364,7.50239234 L13.3636364,7.50239234 Z M5.72727273,0 L5.72727273,5.09090909 L0,5.09090909 L0,0 L5.72727273,0 Z M13.3636364,0 L13.3636364,5.09090909 L7.63636364,5.09090909 L7.63636364,0 L13.3636364,0 Z M21,0 L21,5.09090909 L15.2727273,5.09090909 L15.2727273,0 L21,0 Z" id="path-1"></path>
    </defs>
    <g id="Templates" stroke="none" stroke-width="1" fill="none" fill-rule="evenodd">
        <g id="No-Clip---Global-Nav" transform="translate(-56.000000, -512.000000)">
            <g id="Group" transform="translate(55.000000, 320.000000)">
                <g id="Icon-Container/large-(56x56)" transform="translate(1.000000, 192.000000)">
                    <g id="Icon/Nav/Browse" transform="translate(16.600000, 17.000000)">
                        <g id="Browse" transform="translate(0.818182, 0.818182)">
                            <mask id="mask-2" fill="white">
                                <use xlink:href="#path-1"></use>
                            </mask>
                            <use id="Combined-Shape" fill="#FFFFFF" fill-rule="nonzero" xlink:href="#path-1"></use>
                            <g id="Color/Neutral-10-(FFFFFF)" mask="url(#mask-2)" fill="#FFFFFF">
                                <g transform="translate(-17.818182, -17.818182)" id="Rectangle">
                                    <rect x="0" y="0" width="56" height="56"></rect>
                                </g>
                            </g>
                        </g>
                    </g>
                </g>
            </g>
        </g>
    </g>
</svg>