<?xml version="1.0" encoding="UTF-8"?>
<svg width="56px" height="56px" viewBox="0 0 56 56" version="1.1" xmlns="http://www.w3.org/2000/svg" xmlns:xlink="http://www.w3.org/1999/xlink">
    <title>67716191-1CF1-465A-A400-E0370F570FDE</title>
    <defs>
        <path d="M24.995446,22.7771722 L19.1420787,16.9230194 C22.198718,12.7780509 21.8398678,6.83019397 18.1178769,3.10846459 C16.1126608,1.10403365 13.447328,0 10.6126472,0 C7.77770459,0 5.11263348,1.10403365 3.10872615,3.10846459 C1.10403358,5.11341902 0,7.77822856 0,10.6126478 C0,13.4473288 1.10403358,16.1124001 3.10872615,18.1176163 C5.11289522,20.122309 7.77796634,21.2263426 10.6131706,21.2263426 C12.9076131,21.2263426 15.1065193,20.4942463 16.9251123,19.1439121 L22.7771708,24.994924 C23.0734643,25.2914793 23.4673881,25.4545455 23.8861775,25.4545455 C24.3062757,25.4545455 24.7009847,25.2904323 24.9938755,24.9962328 C25.2906925,24.700201 25.4542821,24.3062772 25.4545442,23.8869642 C25.4548056,23.4676513 25.2917395,23.0734658 24.995446,22.7771722 Z M10.6595211,2.56231232 C12.8231204,2.56231232 14.8573803,3.40479764 16.387897,4.93493928 C17.9152937,6.46167809 18.7565674,8.49543937 18.7565674,10.6613441 C18.7565674,12.8272488 17.9152937,14.8612937 16.3876134,16.388316 C14.8576639,17.9181741 12.8234041,18.7606594 10.6595211,18.7606594 C8.49592185,18.7606594 6.46166201,17.9181741 4.93114526,16.388316 C3.40091215,14.8590251 2.55822029,12.8252638 2.55822029,10.6613441 C2.55822029,8.49827506 3.40091215,6.46451379 4.93114526,4.93493928 C6.46194565,3.40508121 8.49620549,2.56231232 10.6595211,2.56231232 Z" id="path-1"></path>
    </defs>
    <g id="Templates" stroke="none" stroke-width="1" fill="none" fill-rule="evenodd" opacity="0.4">
        <g id="No-Clip---Global-Nav" transform="translate(-56.000000, -608.000000)">
            <g id="Group" transform="translate(55.000000, 320.000000)">
                <g id="Icon-Container/large-(56x56)" transform="translate(1.000000, 288.000000)">
                    <g id="Icon/Nav/Search" transform="translate(14.600000, 15.000000)">
                        <g id="Search" transform="translate(0.272727, 0.272727)">
                            <mask id="mask-2" fill="white">
                                <use xlink:href="#path-1"></use>
                            </mask>
                            <use id="Magnifying-Glass" fill="#FFFFFF" fill-rule="nonzero" xlink:href="#path-1"></use>
                            <g id="Color/Neutral-10-(FFFFFF)" mask="url(#mask-2)" fill="#FFFFFF">
                                <g transform="translate(-12.727273, -12.727273)" id="Rectangle">
                                    <rect x="0" y="0" width="50.9090909" height="50.9090909"></rect>
                                </g>
                            </g>
                        </g>
                    </g>
                </g>
            </g>
        </g>
    </g>
</svg>